<svg width="20" height="20" viewBox="0 0 20 20" fill="none" xmlns="http://www.w3.org/2000/svg">
<rect width="20" height="20" rx="10" fill="#083323"/>
<path d="M6.18019 8.3949C6.40148 8.50955 6.64384 8.57325 6.90727 8.57325C7.17071 8.57325 7.4236 8.50955 7.64489 8.3949C7.79241 8.31847 7.91886 8.2293 8.04531 8.11465C8.16122 8.01274 8.2666 7.88535 8.3509 7.75796C8.41412 7.66879 8.46681 7.56688 8.51949 7.46497C8.55111 7.41401 8.57218 7.35032 8.59326 7.29936C8.61433 7.24841 8.63541 7.19745 8.64594 7.15924C8.66702 7.09554 8.68809 7.03185 8.69863 6.96815C8.75132 6.75159 8.78293 6.53503 8.78293 6.30573V6.20382C8.78293 6.15287 8.78293 6.10191 8.77239 6.05096C8.75132 5.84713 8.70917 5.64331 8.64594 5.45223C8.56164 5.21019 8.44573 4.98089 8.30875 4.77707C8.04531 4.40764 7.6765 4.15287 7.26554 4.05096C7.13909 4.02548 7.01264 4 6.8862 4C6.23288 4 5.65332 4.40764 5.31612 5.01911C5.11591 5.3758 5 5.80892 5 6.28026C5.01054 7.23567 5.49526 8.05096 6.18019 8.3949ZM12.9663 16H13.1138C13.5669 16 13.9884 15.8089 14.3151 15.4777C14.7366 15.0573 15 14.4204 15 13.707C15 13.121 14.8209 12.5987 14.5258 12.1911C14.1992 11.7452 13.746 11.465 13.2297 11.4268H13.1138C12.1971 11.4268 11.4384 12.2038 11.2592 13.2484C11.2487 13.3376 11.2381 13.4268 11.2276 13.5159C11.2276 13.5796 11.2171 13.6433 11.2171 13.6943V13.9108C11.2171 13.9873 11.2065 14.0637 11.2065 14.1401C11.1855 14.344 11.1644 14.5096 11.1222 14.6497C11.0801 14.8153 11.0169 14.9427 10.9326 15.0446C10.8588 15.1465 10.785 15.2229 10.6902 15.2994C10.5427 15.414 10.3741 15.4777 10.2055 15.5032H10.1739C10.0369 15.5287 9.7313 15.5287 9.7313 15.5287V15.9745H12.9663M5.46365 16H9.02529L14.1992 4.08917H8.51949V4.53503C8.82508 4.53503 9.07798 4.58599 9.26765 4.6879C9.63646 4.86624 9.83667 5.18471 9.89989 5.52866C9.92097 5.63057 9.92097 5.74522 9.92097 5.84713C9.91043 5.97452 9.88936 6.11465 9.85774 6.24204C9.76291 6.57325 9.62592 6.90446 9.43625 7.35032L5.46365 16Z" fill="#47AA48"/>
</svg>
